<?xml version="1.0" standalone="no"?>
<!DOCTYPE svg PUBLIC "-//W3C//DTD SVG 20010904//EN"
 "http://www.w3.org/TR/2001/REC-SVG-20010904/DTD/svg10.dtd">
<svg version="1.0" xmlns="http://www.w3.org/2000/svg"
 width="1280.000000pt" height="1280.000000pt" viewBox="0 0 1280.000000 1280.000000"
 preserveAspectRatio="xMidYMid meet">
<metadata>
Created by potrace 1.15, written by Peter Selinger 2001-2017
</metadata>
<g transform="translate(0.000000,1280.000000) scale(0.100000,-0.100000)"
fill="#000000" stroke="none">
<path d="M1987 11209 c-205 -21 -396 -80 -642 -198 -702 -338 -1084 -847
-1229 -1641 -101 -549 -103 -1511 -5 -2070 153 -876 595 -1420 1426 -1754 229
-92 406 -121 693 -113 422 11 824 127 1365 392 571 280 1080 621 1834 1230 14
11 22 14 18 8 -4 -7 -47 -72 -96 -145 -434 -655 -766 -1274 -959 -1788 -146
-389 -224 -776 -208 -1029 25 -385 19 -527 -31 -751 -127 -576 -564 -1322
-1087 -1858 l-119 -122 749 0 750 0 101 167 c279 464 494 911 633 1319 145
422 196 775 154 1069 -69 494 48 1244 351 2240 119 391 274 829 425 1198 l72
177 67 -7 c83 -10 202 -10 262 -1 l46 7 71 -172 c168 -410 356 -952 486 -1402
259 -902 354 -1567 292 -2035 -21 -155 -18 -360 9 -520 85 -512 357 -1169 763
-1848 l115 -192 750 0 750 0 -119 123 c-371 379 -733 913 -924 1362 -181 426
-237 753 -198 1168 20 217 -13 485 -98 785 -155 552 -546 1328 -1054 2092
-121 183 -119 179 -89 155 13 -11 103 -83 199 -160 917 -735 1788 -1223 2490
-1394 204 -50 302 -63 515 -68 356 -9 557 38 915 216 758 377 1131 954 1234
1911 47 435 48 1096 1 1525 -105 960 -483 1538 -1250 1915 -425 208 -710 255
-1165 190 -678 -98 -1513 -514 -2465 -1229 -301 -225 -685 -544 -954 -792
l-122 -111 -87 22 c-160 41 -395 38 -538 -7 l-51 -16 -169 153 c-535 483
-1140 945 -1664 1272 -507 316 -1035 555 -1456 658 -250 62 -560 90 -757 69z
m-12 -1249 c646 -60 1842 -472 3380 -1165 143 -65 282 -127 308 -139 46 -19
48 -22 43 -51 -14 -67 -18 -395 -7 -490 6 -54 8 -102 3 -107 -4 -4 -134 -65
-288 -134 -1519 -685 -2678 -1093 -3362 -1184 -127 -17 -334 -14 -419 5 -93
21 -312 130 -468 232 -609 401 -948 1036 -850 1597 81 462 422 927 896 1222
116 71 328 178 389 194 105 29 214 35 375 20z m9131 -11 c61 -14 288 -122 401
-190 414 -251 733 -632 867 -1039 142 -431 50 -878 -269 -1305 -83 -113 -281
-308 -402 -397 -207 -154 -464 -293 -598 -323 -97 -23 -314 -21 -480 4 -651
97 -1724 474 -3130 1099 -148 66 -314 140 -368 166 l-98 45 8 73 c10 93 10
426 0 498 l-8 55 108 49 c1704 773 2925 1205 3608 1275 107 11 294 6 361 -10z"/>
</g>
</svg>
