<svg id="logo-whats" xmlns="http://www.w3.org/2000/svg" xmlns:xlink="http://www.w3.org/1999/xlink" width="1219.547" height="1225.02" viewBox="0 0 1219.547 1225.02">
  <defs>
    <linearGradient id="linear-gradient" x1="0.5" y1="1" x2="0.5" gradientUnits="objectBoundingBox">
      <stop offset="0" stop-color="#fff"/>
      <stop offset="1" stop-color="#fff"/>
    </linearGradient>
  </defs>
  <path id="Caminho_1" data-name="Caminho 1" d="M1041.86,178.02C927.206,63.289,774.753.07,612.325,0,277.617,0,5.232,272.3,5.1,606.991A605.908,605.908,0,0,0,86.146,910.467L0,1225.02l321.9-84.406a606.813,606.813,0,0,0,290.166,73.9h.261c334.654,0,607.08-272.346,607.222-607.023.056-162.208-63.052-314.724-177.689-429.463ZM612.327,1111.983h-.2a504.079,504.079,0,0,1-256.878-70.339l-18.438-10.93L145.793,1080.8l51-186.176L184.78,875.534a503.2,503.2,0,0,1-77.16-268.5c.111-278.186,226.507-504.5,504.9-504.5,134.812.056,261.519,52.6,356.814,147.965S1117.06,472.62,1117.02,607.44C1116.9,885.635,890.5,1111.983,612.327,1111.983Z" fill="#e0e0e0"/>
  <path id="Caminho_2" data-name="Caminho 2" d="M27.875,1190.11l82.211-300.18a578.178,578.178,0,0,1-77.359-289.6C32.86,280.93,292.8,21.078,612.2,21.078c155.016.07,300.508,60.4,409.9,169.891C1131.508,300.461,1191.727,446,1191.664,600.781c-.133,319.406-260.094,579.281-579.445,579.281h-.258a579.3,579.3,0,0,1-276.9-70.5L27.875,1190.11Z" fill="url(#linear-gradient)"/>
  <rect id="Retângulo_19" data-name="Retângulo 19" width="682" height="639" transform="translate(270.984 291.372)" fill="none" opacity="0.08"/>
  <path id="Caminho_3" data-name="Caminho 3" d="M462.273,349.294c-11.234-24.977-23.062-25.477-33.75-25.914-8.742-.375-18.75-.352-28.742-.352s-26.25,3.758-39.992,18.766-52.5,51.289-52.5,125.078,53.75,145.1,61.242,155.117c7.5,10,103.758,166.266,256.2,226.383,126.7,49.961,152.477,40.023,179.977,37.523s88.734-36.273,101.234-71.3,12.5-65.031,8.75-71.3c-3.75-6.25-13.75-10-28.75-17.5S797.211,682,783.461,677s-23.75-7.5-33.75,7.516c-10,15-38.727,48.773-47.477,58.773-8.75,10.023-17.5,11.273-32.5,3.773-15-7.523-63.3-23.344-120.609-74.438-44.586-39.75-74.688-88.844-83.438-103.859-8.75-15-.938-23.125,6.586-30.6,6.734-6.719,15-17.508,22.5-26.266,7.484-8.758,9.984-15.008,14.984-25.008,5-10.016,2.5-18.773-1.25-26.273s-32.9-81.67-46.234-111.326Z" fill-rule="evenodd"/>
  <path id="Caminho_4" data-name="Caminho 4" d="M1036.9,176.091C923.562,62.677,772.859.185,612.3.114,281.43.114,12.172,269.286,12.039,600.137A598.95,598.95,0,0,0,92.156,900.13L7,1211.07l318.2-83.438a599.843,599.843,0,0,0,286.836,73.047h.258c330.812,0,600.109-269.219,600.25-600.055.055-160.343-62.328-311.108-175.649-424.53ZM612.3,1099.333h-.2a498.291,498.291,0,0,1-253.93-69.531L339.947,1019l-188.828,49.508,50.414-184.039L189.658,865.6a497.415,497.415,0,0,1-76.273-265.422c.109-274.992,223.906-498.711,499.1-498.711,133.266.055,258.516,52,352.719,146.266S1111.237,467.31,1111.2,600.584C1111.08,875.583,887.275,1099.333,612.3,1099.333Z"/>
</svg>
